<?xml version="1.0" encoding="UTF-8" standalone="no"?>
<svg
   width="104"
   height="104"
   fill="none"
   version="1.1"
   id="svg19"
   sodipodi:docname="datasette-logo.svg"
   inkscape:version="1.1 (c68e22c387, 2021-05-23)"
   xmlns:inkscape="http://www.inkscape.org/namespaces/inkscape"
   xmlns:sodipodi="http://sodipodi.sourceforge.net/DTD/sodipodi-0.dtd"
   xmlns="http://www.w3.org/2000/svg"
   xmlns:svg="http://www.w3.org/2000/svg">
  <defs
     id="defs23" />
  <sodipodi:namedview
     id="namedview21"
     pagecolor="#ffffff"
     bordercolor="#666666"
     borderopacity="1.0"
     inkscape:pageshadow="2"
     inkscape:pageopacity="0.0"
     inkscape:pagecheckerboard="0"
     showgrid="false"
     inkscape:zoom="1.416332"
     inkscape:cx="373.14698"
     inkscape:cy="51.894612"
     inkscape:window-width="1920"
     inkscape:window-height="1017"
     inkscape:window-x="1912"
     inkscape:window-y="-8"
     inkscape:window-maximized="1"
     inkscape:current-layer="svg19" />
  <mask
     id="a"
     maskUnits="userSpaceOnUse"
     x="122"
     y="0"
     width="625"
     height="108"
     fill="#000000">
    <path
       fill="#ffffff"
       d="M 122,0 H 747 V 108 H 122 Z"
       id="path2" />
    <path
       d="m 166,6 a 42,42 0 0 1 30,13 c 9,9 14,21 14,35 0,14 -5,26 -14,35 a 42,42 0 0 1 -30,13 H 126 V 6 Z m 0,85 c 9,0 18,-3 24,-11 6,-7 9,-16 9,-26 0,-10 -3,-19 -9,-26 -6,-8 -15,-11 -24,-11 h -29 v 74 z m 115,-1 c -6,8 -15,13 -26,13 -10,0 -19,-4 -25,-11 -7,-7 -10,-16 -10,-26 0,-11 3,-20 10,-27 6,-7 15,-10 26,-10 10,0 19,4 25,12 V 30 h 10 v 72 h -10 z m -25,3 c 8,0 14,-3 19,-8 4,-5 6,-12 6,-19 0,-8 -2,-15 -6,-20 -5,-5 -11,-8 -19,-8 -7,0 -14,3 -18,8 -5,5 -7,12 -7,20 0,7 2,14 7,19 4,5 11,8 18,8 z m 62,9 V 39 h -15 v -9 h 15 V 4 h 10 v 26 h 17 v 9 h -17 v 63 z m 93,-12 c -6,8 -14,13 -26,13 -10,0 -18,-4 -25,-11 -6,-7 -9,-16 -9,-26 0,-11 3,-20 9,-27 7,-7 15,-10 26,-10 11,0 19,4 25,12 V 30 h 11 v 72 h -11 z m -24,3 c 8,0 14,-3 18,-8 5,-5 7,-12 7,-19 0,-8 -2,-15 -7,-20 -4,-5 -10,-8 -18,-8 -8,0 -14,3 -19,8 -4,5 -6,12 -6,20 0,7 2,14 6,19 5,5 11,8 19,8 z m 96,-44 c -1,-7 -7,-11 -18,-11 -11,0 -17,3 -17,10 0,3 1,5 3,7 l 9,3 12,3 11,3 c 4,2 7,4 9,7 3,2 4,6 4,10 0,7 -3,13 -8,16 -5,4 -12,6 -21,6 -10,0 -18,-3 -23,-7 -5,-5 -8,-10 -9,-17 h 12 c 0,7 4,11 11,13 l 7,2 7,-1 6,-1 c 5,-2 7,-5 7,-10 0,-3 -1,-5 -4,-7 -2,-1 -5,-3 -8,-3 l -12,-3 -11,-4 c -4,-1 -7,-3 -9,-6 -3,-2 -4,-5 -4,-10 0,-6 3,-11 7,-15 5,-4 12,-5 21,-5 9,0 16,2 21,6 4,3 7,8 7,14 z m 59,44 c 9,0 16,-4 20,-12 h 12 c -2,6 -6,12 -12,16 -5,4 -12,6 -21,6 -10,0 -19,-4 -26,-11 -7,-7 -10,-16 -10,-26 0,-11 3,-20 10,-27 6,-7 15,-10 26,-10 10,0 19,3 26,10 6,7 9,16 9,27 v 4 h -60 c 1,7 4,12 8,16 5,5 10,7 18,7 z m -1,-55 a 24,24 0 0 0 -25,22 h 49 c -1,-6 -3,-12 -8,-15 -4,-5 -10,-7 -16,-7 z m 167,55 c 10,0 17,-4 21,-12 h 12 c -3,6 -7,12 -12,16 -5,4 -12,6 -21,6 -11,0 -19,-4 -26,-11 -7,-7 -10,-16 -10,-26 0,-11 3,-20 9,-27 7,-7 16,-10 26,-10 11,0 20,3 27,10 6,7 9,16 9,27 v 4 h -60 c 1,7 3,12 8,16 4,5 10,7 17,7 z m -1,-55 a 24,24 0 0 0 -24,22 h 49 c -1,-6 -4,-12 -8,-15 -4,-5 -10,-7 -17,-7 z M 601,104 V 42 H 586 V 32 h 15 V 6 h 10 v 26 h 11 v 10 h -11 v 62 z m 35,0 V 42 H 622 V 32 h 14 V 6 h 11 v 26 h 16 v 10 h -16 v 62 z"
       id="path4" />
  </mask>
  <path
     d="M 2,17 H 102"
     stroke="#0e0c82"
     stroke-width="4"
     stroke-linecap="round"
     stroke-linejoin="round"
     id="path11" />
  <path
     d="M 19,102 V 19 m 16,81 V 17 m 17,83 V 17 m 17,85 V 19 m 16,83 V 19"
     stroke="#0e0c82"
     stroke-opacity="0.3"
     stroke-width="4"
     stroke-linecap="round"
     stroke-linejoin="round"
     id="path13" />
  <path
     d="M 100,52 H 2 m 98,34 H 2 M 100,69 H 2 M 102,35 H 4 M 102,17 H 4 M 91,2 H 13 C 7,2 2,7 2,13 v 78 c 0,6 5,11 11,11 h 78 c 6,0 11,-5 11,-11 V 13 C 102,7 97,2 91,2 Z"
     stroke="#0e0c82"
     stroke-width="4"
     stroke-linecap="round"
     stroke-linejoin="round"
     id="path15" />
  <path
     d="M 102,17 H 2 C 3,6 5,2 16,2 h 71 c 12,0 15,4 15,15 z"
     fill="#0e0c82"
     fill-opacity="0.3"
     id="path17" />
</svg>
